# xmcd CD database file
#
# Track frame offsets:
#	150
#	39939
#	68370
#	96246
#	120315
#	150468
#	190707
#	227590
#
# Disc length: 3442 seconds
#
# Revision: 0
# Processed by: cddbd v1.5.2PL0 Copyright (c) Steve Scherf et al.
# Submitted via: CDex 1.51
#
DISCID=4f0d7008
DTITLE=Jessica Williams trio - Freedom trane
DYEAR=2011
DGENRE=Jazz
TTITLE0=The seeker
TTITLE1=Lonnie's lament
TTITLE2=Freedom trane
TTITLE3=Paul's pal
TTITLE4=Prayer and meditation
TTITLE5=Just words
TTITLE6=Naima
TTITLE7=Welcome
EXTD=YEAR: 2011
EXTT0=
EXTT1=
EXTT2=
EXTT3=
EXTT4=
EXTT5=
EXTT6=
EXTT7=
PLAYORDER=
